<svg width="100%" height="100%" id="svg" viewBox="0 0 1440 490" xmlns="http://www.w3.org/2000/svg" class="transition duration-300 ease-in-out delay-150"><defs><linearGradient id="gradient" x1="50%" y1="0%" x2="50%" y2="100%"><stop offset="5%" stop-color="#ff6900"></stop><stop offset="95%" stop-color="#fcb900"></stop></linearGradient></defs><path d="M 0,500 L 0,187 C 30.47845909600938,133.9959379594683 60.95691819201876,80.99187591893663 93,103 C 125.04308180798124,125.00812408106337 158.65078632793433,222.02843428372182 188,240 C 217.34921367206567,257.9715657162782 242.4399364962439,196.89438694617627 273,162 C 303.5600635037561,127.10561305382372 339.58946768708995,118.39401793157306 374,119 C 408.41053231291005,119.60598206842694 441.20219275539625,129.52954132753152 477,135 C 512.7978072446037,140.47045867246848 551.6017612913251,141.48781675830077 589,160 C 626.3982387086749,178.51218324169923 662.390762079303,214.51919163926544 687,201 C 711.609237920697,187.48080836073456 724.8351903914628,124.4354166846375 753,118 C 781.1648096085372,111.5645833153625 824.2684763548461,161.7391416221846 866,169 C 907.7315236451539,176.2608583778154 948.0909041891529,140.60801682662412 976,132 C 1003.9090958108471,123.39198317337589 1019.3679068885419,141.82879107131896 1049,178 C 1078.632093111458,214.17120892868104 1122.4374682566795,268.0768188881001 1159,247 C 1195.5625317433205,225.92318111189994 1224.8822200847403,129.86393337628078 1258,110 C 1291.1177799152597,90.13606662371922 1328.0336514043597,146.46744760677691 1359,172 C 1389.9663485956403,197.53255239322309 1414.9831742978201,192.26627619661156 1440,187 L 1440,500 L 0,500 Z" stroke="none" stroke-width="0" fill="url(#gradient)" fill-opacity="1" class="transition-all duration-300 ease-in-out delay-150 path-0"></path></svg>